#include "pitches.h"

struct Note;

struct Note {
  uint16_t frequency;
  float division;
  uint8_t repetitions;
};

Note grace[] = {
  {NOTE_CS4, 32, 1},
  {NOTE_E4, 4/1.5, 1},
  {NOTE_GS4, 8, 1},
  {NOTE_FS4, 16, 1},
  {NOTE_GS4, 16, 1},
  {NOTE_FS4, 16, 1},
  {NOTE_E4, 16, 1},
  {NOTE_GS4, 8, 1},
  {NOTE_CS4, 8, 1},
  {NOTE_E4, 8, 1},
  {NOTE_FS4, 8, 1},
  {NOTE_FS4, 8, 1},
  {NOTE_GS4, 8, 1},
  {NOTE_GS4, 8, 1},
  {NOTE_GS3, 8, 1},
  {NOTE_GS3, 8, 1},
  {NOTE_CS4, 8, 1},
  {NOTE_CS4, 4/1.5, 1},

  {NOTE_FS4, 8, 1},
  {NOTE_GS4, 16, 1},
  {NOTE_FS4, 16, 1},
  {NOTE_E4, 16, 1},
  {NOTE_FS4, 16, 1},
  {NOTE_E4, 16, 1},
  {NOTE_DS4, 16, 1},
  {NOTE_CS4, 16, 1},
  {NOTE_E4, 16, 1},
  {NOTE_DS4, 16, 1},
  {NOTE_CS4, 16, 1},
  {NOTE_B3, 16, 1},
  {NOTE_DS4, 16, 1},
  {NOTE_CS4, 16, 1},
  {NOTE_B3, 16, 1},
  {NOTE_A3, 16, 1},
  {NOTE_CS4, 16, 1},
  {NOTE_B3, 16, 1},
  {NOTE_A3, 16, 1},
  {NOTE_GS3, 16, 1},
  {NOTE_B3, 16, 1},
  {NOTE_A3, 16, 1},
  {NOTE_GS3, 16, 1},
  {NOTE_FS3, 16, 1},
  {NOTE_E3, 16, 1},

  {NOTE_A3, 4/1.5, 1},
  {NOTE_A3, 8, 1},
  {NOTE_GS3, 16*3/2, 1},
  {NOTE_A3, 16*3/2, 1},
  {NOTE_GS3, 16*3/2, 1},
  {NOTE_FS3, 8, 1},
  {NOTE_GS3, 8, 1},
  {NOTE_FS3, 8, 1},
  {NOTE_FS3, 8, 1},
  {NOTE_E3, 8, 1},
  {NOTE_E3, 8, 1},
  {NOTE_FS3, 8, 1},
  {NOTE_FS3, 16, 1},
  {NOTE_GS3, 16, 1},
  {NOTE_FS3, 8, 1},
  {NOTE_E3, 8, 1},
  {NOTE_B2, 8, 1},
  {NOTE_CS3, 1, 1},

  {NOTE_B2, 16, 1},
  {NOTE_CS3, 16, 1},
  {NOTE_E3, 16, 1},
  {NOTE_FS3, 16, 1},
  {NOTE_GS3, 16, 1},
  {NOTE_B3, 16, 1},
  {NOTE_CS4, 16, 1},
  {NOTE_DS4, 16, 1},
  {NOTE_E4, 16, 1},
  {NOTE_DS4, 16, 1},
  {NOTE_CS4, 16, 1},
  {NOTE_DS4, 16, 1},
  {NOTE_CS4, 16, 1},
  {NOTE_B3, 16, 1},
  {NOTE_A3, 16, 1},
  {NOTE_FS3, 16, 1},

  {NOTE_A4, 4/1.5, 1},
  {NOTE_A4, 8, 1},
  {NOTE_A4, 8, 1},
  {NOTE_GS4, 16*3/2, 1},
  {NOTE_A4, 16*3/2, 1},
  {NOTE_GS4, 16*3/2, 1},
  {NOTE_FS4, 8, 1},
  {NOTE_E4, 8, 1},
  {NOTE_GS4, 16, 1},
  {NOTE_FS4, 16, 1},
  {NOTE_E4, 16, 1},
  {NOTE_DS4, 16, 1},
  {NOTE_FS4, 16, 1},
  {NOTE_E4, 16, 1},
  {NOTE_DS4, 16, 1},
  {NOTE_CS4, 16, 1},
  {NOTE_E4, 16, 1},
  {NOTE_DS4, 16, 1},
  {NOTE_CS4, 16, 1},
  {NOTE_B3, 16, 1},
  {NOTE_DS4, 16, 1},
  {NOTE_CS4, 16, 1},
  {NOTE_B3, 16, 1},
  {NOTE_GS3, 16, 1},
  {NOTE_CS4, 4/1.5, 1},

  {NOTE_CS4, 8, 1},
  {NOTE_CS4, 8, 1},
  {NOTE_DS4, 8, 1},
  {NOTE_DS4, 8, 1},
  {NOTE_E4, 8, 1},
  {NOTE_E4, 8, 1},
  {NOTE_DS4, 8, 1},
  {NOTE_DS4, 8, 1},
  {NOTE_CS4, 8, 1},
  {NOTE_CS4, 8, 1},
  {NOTE_FS3, 8, 1},
  {NOTE_FS3, 8, 1},
  {NOTE_GS3, 8, 1},
  {NOTE_A3, 1, 1},
  {NOTE_GS3, 2, 1},
  {NOTE_B2, 2, 1},
  {NOTE_CS3, 1/1.9, 1}
};

Note in_your_face[] = {
  {NOTE_C3, 8, 4}, 
  {0, 8, 1},
  {NOTE_C3, 8, 6}, 
  {0, 8, 1},
  {NOTE_C3, 8, 2}, 
  {0, 8, 2},
  {NOTE_C3, 8, 4}, 
  {0, 8, 1},
  {NOTE_C3, 8, 1}, 
  {0, 8, 1},
  {NOTE_C3, 8, 1}, 
  {0, 8, 1},
  {NOTE_C3, 8, 5}, 
  {0, 8, 2}
};